<svg width="33" height="33" viewBox="0 0 33 33" fill="none" xmlns="http://www.w3.org/2000/svg">
<circle cx="16.5" cy="16.5" r="16.5" fill="#D9D9D9"/>
<path d="M19.1736 23.2667H20.9942V25.0873H19.1736M15.5324 23.2667H17.353V25.0873H15.5324M11.8912 23.2667H13.7118V25.0873H11.8912M10.0706 13.2534L11.4361 9.15708H21.4494L22.8148 13.2534M21.4494 17.8049C21.0872 17.8049 20.7399 17.6611 20.4838 17.405C20.2278 17.1489 20.0839 16.8016 20.0839 16.4395C20.0839 16.0773 20.2278 15.73 20.4838 15.474C20.7399 15.2179 21.0872 15.074 21.4494 15.074C21.8115 15.074 22.1588 15.2179 22.4149 15.474C22.671 15.73 22.8148 16.0773 22.8148 16.4395C22.8148 16.8016 22.671 17.1489 22.4149 17.405C22.1588 17.6611 21.8115 17.8049 21.4494 17.8049ZM11.4361 17.8049C11.0739 17.8049 10.7266 17.6611 10.4705 17.405C10.2145 17.1489 10.0706 16.8016 10.0706 16.4395C10.0706 16.0773 10.2145 15.73 10.4705 15.474C10.7266 15.2179 11.0739 15.074 11.4361 15.074C11.7982 15.074 12.1455 15.2179 12.4016 15.474C12.6576 15.73 12.8015 16.0773 12.8015 16.4395C12.8015 16.8016 12.6576 17.1489 12.4016 17.405C12.1455 17.6611 11.7982 17.8049 11.4361 17.8049ZM22.742 8.70193C22.5599 8.17395 22.0502 7.79163 21.4494 7.79163H11.4361C10.8353 7.79163 10.3255 8.17395 10.1434 8.70193L8.25 14.1637V21.4461C8.25 21.6876 8.34591 21.9191 8.51662 22.0898C8.68734 22.2605 8.91887 22.3564 9.1603 22.3564H10.0706C10.312 22.3564 10.5436 22.2605 10.7143 22.0898C10.885 21.9191 10.9809 21.6876 10.9809 21.4461V20.5358H21.9045V21.4461C21.9045 21.6876 22.0004 21.9191 22.1711 22.0898C22.3418 22.2605 22.5734 22.3564 22.8148 22.3564H23.7251C23.9665 22.3564 24.1981 22.2605 24.3688 22.0898C24.5395 21.9191 24.6354 21.6876 24.6354 21.4461V14.1637L22.742 8.70193Z" fill="black"/>
</svg>
